# xmcd CD database file
#
# Track frame offsets:
#	183
#	21123
#	33728
#	51245
#	64460
#	80403
#	94190
#	113890
#	128773
#	151270
#	167930
#
# Disc length: 2479 seconds
#
# Revision: 0
# Processed by: cddbd v1.5.2PL0 Copyright (c) Steve Scherf et al.
# Submitted via: CDex 1.70beta2
#
DISCID=9309ad0b
DTITLE=Various Artist - Living Chicago Blues - vol 5
DYEAR=1980
DGENRE=Blues
TTITLE0=Lacy Gibson with the Chicago Fire Band - Drown by my own tears
TTITLE1=Lacy Gibson with the Chicago Fire Band - Crying for my baby
TTITLE2=Lacy Gibson with the Chicago Fire Band - I feel so bad
TTITLE3=Lacy Gibson with the Chicago Fire Band - wish me well
TTITLE4=Big Leon Brooks' Blues Harp Band - Blues for a real man
TTITLE5=Lacy Gibson with the Chicago Fire Band - Thirteen years in prison
TTITLE6=Lacy Gibson with the Chicago Fire Band - Country Boy
TTITLE7=Lacy Gibson with the Chicago Fire Band - My life ain't the shame
TTITLE8=Andrew Brown - You don't know
TTITLE9=Andrew Brown - Morning noon and night
TTITLE10=Andrew Brown - Two years
EXTD=YEAR: 1980
EXTT0=
EXTT1=
EXTT2=
EXTT3=
EXTT4=
EXTT5=
EXTT6=
EXTT7=
EXTT8=
EXTT9=
EXTT10=
PLAYORDER=
